<?xml version="1.0" encoding="UTF-8" standalone="no"?>
<!-- Created with Inkscape (http://www.inkscape.org/) -->

<svg
   version="1.1"
   id="svg1"
   width="145"
   height="118"
   viewBox="0 0 145 118"
   sodipodi:docname="gift.svg"
   inkscape:version="1.3.2 (091e20e, 2023-11-25, custom)"
   xmlns:inkscape="http://www.inkscape.org/namespaces/inkscape"
   xmlns:sodipodi="http://sodipodi.sourceforge.net/DTD/sodipodi-0.dtd"
   xmlns="http://www.w3.org/2000/svg"
   xmlns:svg="http://www.w3.org/2000/svg">
  <defs
     id="defs1" />
  <sodipodi:namedview
     id="namedview1"
     pagecolor="#505050"
     bordercolor="#ffffff"
     borderopacity="1"
     inkscape:showpageshadow="0"
     inkscape:pageopacity="0"
     inkscape:pagecheckerboard="1"
     inkscape:deskcolor="#505050"
     showgrid="false"
     inkscape:zoom="6.1002941"
     inkscape:cx="76.225833"
     inkscape:cy="66.308279"
     inkscape:window-width="1366"
     inkscape:window-height="705"
     inkscape:window-x="-8"
     inkscape:window-y="-8"
     inkscape:window-maximized="1"
     inkscape:current-layer="g1" />
  <g
     inkscape:groupmode="layer"
     inkscape:label="Image"
     id="g1">
    <path
       style="fill:#000000"
       d="m 43.663927,106.73187 c -6.598137,0.0976 -6.083551,-1.84121 -6.204451,-14.938003 -0.03208,-3.474924 0.0076,-10.33641 0.0076,-10.33641 C 32.230664,81.199306 32.081894,82.481232 32.015313,67.3151 31.942934,50.828387 31.497764,48.625459 44.812799,49 42.418171,44.068639 42.368564,38.853446 44.752179,35.264012 c 6.15921,-9.275027 17.956554,-10.432 26.505084,-0.249733 l 3.618741,3.724565 4.182665,-4.799075 c 7.652538,-8.780312 19.492352,-7.549713 25.192321,1.404201 2.77282,4.355726 2.78771,8.854909 -0.16799,13.819956 12.60551,0.06239 12.23126,1.412573 12.24485,16.589021 C 116.33903,78.233528 116.52095,80.241904 111,80 c 0.34673,6.209422 0,10.936016 0,10.936016 -0.1194,15.337884 -0.16242,15.139424 -4.82445,15.563984 -21.328788,-0.27339 -42.317867,0.4215 -62.511623,0.23187 z M 70,57 H 40 v 15 l 23.344294,0.163927 0,7.672146 L 46,80 V 99 H 70 Z M 103,80 84.344294,79.836073 84.50822,72 H 108 V 57 H 78 C 77.881176,59.973173 77.90707,97.870979 78.01096,98.989039 84.999768,98.795687 94.915117,99 103,99 Z M 67.875361,43.451142 C 63.276238,37.359647 61.402098,36 57.604697,36 55.565905,36 48.655222,40.021278 53.07258,46.365141 54.872361,48.949846 57.459966,49 63.604975,49 H 72.06479 Z M 96,47 c 4.11733,-4.117327 1.038886,-11 -4.920013,-11 -2.29095,0 -4.997964,1.883586 -8,5.699617 C 80.483637,44.999961 78,48.251187 78,48.691397 78,49.131608 81.6,49 86,49 c 6.666667,0 8.333333,-0.333333 10,-2 z"
       id="path1"
       sodipodi:nodetypes="cscscsscsscscsccccccccccccccccccccsssscsssssss" />
  </g>
</svg>
